<?xml version="1.0" standalone="no"?>
<!DOCTYPE svg PUBLIC "-//W3C//DTD SVG 20010904//EN"
 "http://www.w3.org/TR/2001/REC-SVG-20010904/DTD/svg10.dtd">
<svg version="1.0" xmlns="http://www.w3.org/2000/svg"
 width="560.000000pt" height="560.000000pt" viewBox="0 0 560.000000 560.000000"
 preserveAspectRatio="xMidYMid meet">
<metadata>
Created by potrace 1.11, written by Peter Selinger 2001-2013
</metadata>
<g transform="translate(0.000000,560.000000) scale(0.100000,-0.100000)"
fill="#000000" stroke="none">
<path d="M2574 5590 c-534 -45 -1036 -238 -1474 -568 -153 -115 -411 -373
-526 -527 -238 -318 -391 -635 -484 -1006 -113 -447 -116 -898 -8 -1344 121
-506 370 -949 742 -1321 486 -487 1104 -767 1795 -815 266 -18 560 7 831 72
700 166 1312 601 1706 1215 90 140 216 394 272 549 49 136 116 403 137 549 98
680 -59 1386 -433 1946 -123 184 -203 282 -356 436 -442 443 -986 712 -1616
799 -138 19 -446 27 -586 15z m436 -170 c637 -56 1198 -316 1645 -764 216
-216 366 -426 500 -701 282 -575 344 -1207 179 -1834 -90 -345 -261 -682 -491
-971 -93 -116 -278 -301 -393 -394 -573 -459 -1300 -658 -2024 -555 -386 55
-750 193 -1072 408 -309 205 -546 442 -750 751 -186 281 -311 587 -379 925
-149 740 22 1488 480 2101 167 223 447 481 694 639 465 296 1062 443 1611 395z"/>
<path d="M2607 5340 c-352 -27 -713 -134 -1012 -297 -697 -382 -1167 -1036
-1306 -1818 -30 -171 -38 -545 -15 -735 119 -974 795 -1798 1726 -2104 288
-94 488 -127 785 -128 312 -1 528 33 815 128 266 88 498 210 730 382 142 106
388 350 491 488 263 350 430 746 495 1169 26 169 26 589 0 755 -154 983 -859
1788 -1806 2064 -287 84 -614 119 -903 96z m246 -134 c43 -18 71 -50 102 -119
55 -120 85 -371 77 -659 l-3 -118 -28 0 c-16 0 -49 3 -74 6 l-46 7 0 206 c0
113 -5 241 -10 284 -12 85 -37 190 -53 221 -10 18 -11 18 -25 -9 -37 -70 -55
-204 -60 -456 l-5 -246 -52 -7 c-28 -3 -62 -6 -75 -6 l-24 0 6 258 c4 210 9
275 27 357 33 154 81 248 142 278 41 20 60 21 101 3z m-731 -173 c107 -74 246
-331 349 -646 16 -49 29 -90 29 -92 0 -5 -141 -38 -144 -34 -2 2 -18 49 -36
104 -43 133 -126 323 -178 410 -41 70 -85 125 -98 125 -14 0 5 -179 30 -275
26 -102 77 -258 115 -353 11 -29 21 -56 21 -60 0 -4 -29 -22 -65 -40 l-65 -32
-16 38 c-43 104 -106 291 -135 407 -29 111 -34 147 -34 250 0 109 2 124 24
162 45 78 123 92 203 36z m1543 -6 c76 -76 74 -242 -6 -524 -35 -120 -127
-363 -137 -363 -4 1 -35 15 -69 33 l-61 32 34 85 c86 212 144 431 143 545 l0
70 -38 -44 c-70 -79 -155 -252 -231 -466 -23 -66 -44 -125 -45 -131 -3 -8 -23
-6 -71 7 -37 10 -69 21 -72 24 -8 7 75 237 128 358 88 198 167 315 253 378 31
23 51 29 90 29 42 0 54 -5 82 -33z m-2216 -378 c125 -54 322 -239 506 -476
l55 -71 -62 -42 -62 -43 -18 24 c-159 201 -334 381 -432 444 -32 20 -60 35
-62 32 -6 -5 19 -74 46 -128 50 -97 168 -259 292 -400 l58 -65 -51 -53 c-42
-43 -53 -50 -65 -40 -27 22 -200 232 -251 304 -117 165 -182 306 -183 393 0
129 93 179 229 121z m2887 -4 c30 -20 54 -71 54 -118 0 -133 -147 -378 -387
-645 l-66 -74 -53 53 -53 52 88 101 c103 119 161 195 223 291 48 73 103 193
94 202 -27 27 -303 -225 -445 -404 l-72 -92 -57 40 c-31 22 -57 44 -57 49 0
20 141 186 265 312 222 224 368 297 466 233z m-1426 -505 c544 -48 991 -402
1165 -922 45 -135 65 -264 65 -418 0 -216 -46 -414 -141 -601 -319 -636 -1072
-911 -1728 -634 -416 176 -717 556 -797 1007 -21 122 -21 334 0 458 47 269
181 526 376 720 222 223 509 358 825 389 115 12 110 12 235 1z m-1840 -106
c58 -19 150 -58 205 -85 124 -63 337 -189 333 -198 -2 -4 -21 -32 -42 -62
l-39 -56 -126 75 c-196 117 -378 197 -495 218 -36 6 -37 5 -27 -13 18 -35 156
-157 243 -215 75 -51 297 -183 320 -190 8 -3 -48 -138 -58 -138 -8 0 -211 116
-279 158 -114 73 -215 154 -289 232 -98 104 -125 174 -92 238 47 90 150 101
346 36z m3759 11 c17 -8 38 -26 47 -40 22 -33 20 -105 -5 -152 -61 -120 -279
-291 -572 -447 l-84 -45 -31 67 -30 67 141 80 c171 97 287 179 372 261 74 72
79 88 26 78 -117 -20 -297 -98 -492 -213 -68 -40 -126 -69 -130 -64 -4 4 -24
31 -45 60 l-37 51 108 65 c214 128 430 224 557 247 65 11 137 5 175 -15z
m-3864 -685 c98 -11 369 -60 384 -70 9 -5 -21 -125 -33 -138 -2 -2 -62 8 -132
22 -186 36 -321 49 -446 44 -124 -5 -146 -15 -96 -46 86 -53 286 -113 488
-146 52 -9 110 -19 128 -22 l33 -5 -7 -72 c-4 -40 -7 -73 -9 -74 -3 -5 -243
36 -338 58 -307 68 -497 182 -497 297 0 66 78 131 181 151 62 12 237 13 344 1z
m4077 -29 c115 -44 151 -133 89 -218 -79 -109 -336 -201 -718 -256 l-91 -14
-7 70 c-4 38 -3 72 1 76 5 4 62 15 128 25 172 25 373 78 463 123 43 21 78 42
78 48 0 43 -341 28 -600 -25 -54 -11 -100 -19 -102 -16 -2 2 -12 33 -23 70
-14 50 -16 68 -7 71 24 9 215 44 292 54 44 6 94 13 110 15 17 2 98 3 180 2
127 -3 159 -6 207 -25z m-3759 -633 c3 -43 1 -76 -5 -79 -5 -4 -37 -9 -70 -13
-165 -17 -425 -84 -530 -137 -95 -48 -86 -58 62 -66 112 -6 265 9 444 43 70
14 129 24 130 22 11 -15 35 -133 29 -139 -11 -10 -264 -56 -385 -69 -324 -34
-518 25 -518 159 0 141 251 258 710 331 63 10 118 18 121 19 4 1 9 -32 12 -71z
m3200 38 c343 -59 577 -148 648 -248 33 -46 36 -105 7 -148 -60 -90 -234 -119
-518 -85 -106 12 -368 60 -376 68 -1 1 7 34 18 72 l21 70 134 -27 c174 -35
345 -52 452 -45 138 8 147 19 53 66 -105 52 -293 103 -504 137 -121 19 -114
11 -102 112 4 28 10 52 15 52 4 0 72 -11 152 -24z m-3073 -552 c16 -37 30 -68
30 -69 0 -1 -49 -30 -110 -64 -166 -93 -316 -197 -392 -272 -37 -36 -68 -71
-68 -77 0 -15 41 -7 157 30 96 30 260 110 402 196 47 28 87 49 91 47 10 -6 83
-115 79 -119 -24 -21 -224 -133 -334 -187 -339 -166 -555 -162 -555 11 0 126
191 302 542 499 68 38 124 70 125 70 2 1 16 -29 33 -65z m2939 -14 c349 -200
540 -378 541 -505 0 -40 -32 -90 -70 -110 -119 -61 -418 41 -768 262 l-62 39
40 55 c23 30 44 55 49 57 4 1 61 -29 127 -68 139 -83 261 -143 359 -177 85
-29 154 -43 160 -33 8 13 -125 137 -220 205 -49 36 -142 94 -205 130 -63 36
-121 69 -129 74 -12 8 -10 20 13 75 16 36 31 66 35 66 4 0 63 -32 130 -70z
m-2636 -431 l48 -51 -64 -71 c-96 -109 -169 -203 -232 -300 -54 -83 -111 -204
-101 -214 8 -8 63 26 138 85 84 67 201 189 302 314 l70 88 25 -17 c14 -9 43
-27 64 -41 l37 -25 -37 -46 c-141 -177 -264 -307 -372 -393 -82 -66 -146 -102
-214 -118 -88 -23 -167 40 -167 132 0 134 137 365 373 631 38 42 72 77 75 77
3 0 28 -23 55 -51z m2349 -89 c251 -299 358 -528 302 -646 -46 -97 -180 -82
-339 39 -108 82 -420 421 -420 457 0 5 25 27 56 49 l57 41 73 -93 c102 -129
292 -317 369 -366 35 -23 66 -38 68 -32 2 5 -7 33 -19 63 -50 118 -158 275
-302 439 l-75 86 51 51 51 51 24 -22 c13 -12 60 -65 104 -117z m-1922 -220
c33 -17 60 -34 60 -38 0 -4 -13 -40 -30 -80 -81 -199 -140 -431 -140 -546 l1
-61 40 45 c52 59 168 291 229 460 54 149 43 140 138 113 47 -13 52 -17 46 -36
-28 -92 -105 -292 -150 -385 -118 -249 -225 -361 -333 -349 -140 16 -159 212
-56 566 29 99 104 305 121 332 7 13 8 12 74 -21z m1399 -2 c133 -332 197 -636
162 -765 -15 -55 -53 -99 -97 -113 -134 -45 -307 192 -458 627 l-45 133 27 6
c15 3 48 12 74 19 l47 13 21 -71 c58 -191 184 -457 251 -529 l40 -43 -4 95
c-6 115 -47 277 -116 464 -28 72 -49 131 -48 132 6 5 123 63 127 64 3 0 11
-15 19 -32z m-838 -147 c15 -1 17 -28 22 -238 5 -237 24 -380 56 -442 16 -30
28 -19 46 42 31 101 47 250 48 444 l2 191 35 6 c19 3 51 6 71 6 l36 0 7 -87
c9 -115 -9 -394 -33 -510 -42 -201 -120 -299 -224 -279 -93 17 -158 162 -187
411 -10 90 -14 457 -5 467 3 2 28 1 57 -3 29 -4 60 -8 69 -8z"/>
<path d="M2740 4023 c-359 -17 -701 -196 -914 -480 -167 -223 -247 -462 -247
-743 0 -334 120 -628 351 -860 181 -183 406 -301 654 -345 114 -19 318 -19
432 0 437 77 809 401 948 828 86 265 73 587 -35 850 -168 408 -581 714 -998
743 -42 2 -89 6 -106 7 -16 1 -55 1 -85 0z m182 -158 c90 -19 147 -45 198 -91
114 -103 127 -254 35 -422 -37 -66 -176 -271 -186 -271 -3 -1 -12 5 -21 12
-15 11 -11 24 30 125 42 102 45 114 30 128 -28 28 -51 2 -96 -115 -24 -61 -48
-111 -53 -111 -5 0 -9 80 -9 183 0 145 3 190 15 215 29 58 -6 112 -72 112 -63
0 -96 -73 -58 -127 13 -18 15 -54 13 -199 -2 -121 -7 -179 -14 -181 -7 -2 -31
45 -57 109 -49 122 -66 143 -94 115 -16 -16 -14 -23 31 -133 47 -117 49 -133
9 -134 -17 0 -148 199 -196 297 -39 82 -42 94 -42 173 0 73 4 92 27 136 80
151 291 226 510 179z m-673 -450 c75 -37 147 -109 253 -249 101 -134 101 -135
89 -155 -7 -11 -31 4 -113 73 -105 88 -140 103 -146 60 -2 -15 23 -42 103
-109 58 -48 105 -91 105 -95 0 -3 -84 21 -188 55 -138 45 -194 68 -214 88 -35
35 -80 36 -113 2 -34 -33 -33 -75 2 -110 24 -23 33 -26 70 -21 34 4 77 -6 230
-56 l188 -62 -60 -7 c-33 -5 -100 -11 -148 -15 -66 -4 -90 -10 -94 -21 -8 -20
10 -48 30 -47 8 1 72 5 142 9 l127 7 -4 -22 c-3 -20 -21 -28 -158 -67 -306
-87 -454 -63 -557 90 -85 126 -56 363 66 541 93 134 254 180 390 111z m1353 3
c98 -42 204 -192 234 -330 18 -84 17 -203 -1 -265 -20 -68 -88 -143 -157 -174
-45 -21 -67 -24 -153 -23 -90 1 -117 7 -265 51 -140 43 -165 54 -168 72 -3 20
-1 20 95 13 156 -11 184 -9 197 11 20 33 -15 45 -155 52 -71 4 -131 11 -134
15 -2 4 78 33 178 65 132 42 195 58 229 56 57 -2 88 22 88 70 0 43 -15 65 -50
78 -36 12 -71 2 -91 -27 -14 -19 -385 -150 -395 -139 -3 2 45 46 106 97 60 50
110 98 110 105 0 7 -7 18 -16 26 -20 16 -30 11 -151 -94 -87 -74 -95 -78 -107
-61 -12 16 -5 29 63 118 216 284 364 361 543 284z m-709 -424 c79 -40 119
-106 119 -196 0 -76 -37 -140 -105 -182 -160 -99 -361 51 -316 236 15 65 85
139 145 156 48 14 114 8 157 -14z m337 -351 c224 -81 329 -152 378 -256 84
-180 -28 -391 -273 -513 -158 -79 -280 -71 -385 23 -93 83 -117 164 -126 425
-7 164 -6 178 10 184 24 9 28 1 61 -136 30 -123 41 -145 68 -134 27 10 26 29
-8 165 -19 73 -32 135 -30 137 1 2 55 -68 119 -156 80 -110 116 -168 116 -187
0 -16 12 -38 30 -57 26 -25 36 -29 63 -24 86 16 90 129 6 159 -17 5 -255 325
-248 331 2 2 57 -30 122 -70 65 -41 124 -74 132 -74 7 0 18 7 25 15 18 22 4
35 -126 116 -103 65 -112 72 -101 90 7 11 18 17 27 13 8 -3 71 -26 140 -51z
m-690 16 c0 -4 -52 -40 -115 -79 -95 -59 -115 -76 -115 -96 0 -40 37 -29 159
46 63 39 115 69 117 67 2 -2 -48 -75 -112 -162 -77 -107 -125 -163 -144 -171
-98 -42 -36 -186 65 -148 19 8 45 55 45 82 0 19 229 346 237 338 2 -2 -10 -59
-27 -126 -36 -143 -36 -175 -1 -175 23 0 27 8 59 135 18 74 37 138 41 143 4 4
14 1 23 -5 14 -11 14 -34 7 -188 -11 -241 -37 -328 -120 -411 -137 -137 -365
-107 -555 73 -92 88 -135 166 -142 258 -7 99 17 160 87 230 66 65 126 96 321
165 136 48 170 53 170 24z"/>
<path d="M2723 2920 c-87 -52 -83 -198 6 -245 94 -48 211 20 211 123 0 111
-122 180 -217 122z"/>
</g>
</svg>
